<svg xmlns="http://www.w3.org/2000/svg" id="prefix__ic_asset_grade" width="32" height="32" viewBox="0 0 32 32">
    <g id="prefix__그룹_4053" data-name="그룹 4053">
        <rect id="prefix__사각형_5369" width="32" height="32" fill="#f9fafd" data-name="사각형 5369" rx="10"/>
    </g>
    <path id="prefix__패스_8244" fill="#f6d59d" d="M8.024 2.915a1.47 1.47 0 0 1 2.77 0l.85 2.362a1.474 1.474 0 0 0 1.348.977l2.479.062a1.483 1.483 0 0 1 .846 2.666l-1.91 1.437a1.486 1.486 0 0 0-.527 1.617l.7 2.305A1.475 1.475 0 0 1 12.347 16l-2.116-1.43a1.466 1.466 0 0 0-1.643 0L6.471 16a1.475 1.475 0 0 1-2.231-1.66l.7-2.305a1.486 1.486 0 0 0-.527-1.617L2.5 8.982a1.483 1.483 0 0 1 .846-2.666l2.479-.062a1.474 1.474 0 0 0 1.348-.977z" data-name="패스 8244" transform="translate(6.533 6.876)"/>
</svg>
