<svg xmlns="http://www.w3.org/2000/svg" width="32" height="32" viewBox="0 0 32 32">
    <g id="prefix__ic_asset_matching" transform="translate(0 -.17)">
        <g id="prefix__그룹_4052" data-name="그룹 4052" transform="translate(0 .17)">
            <rect id="prefix__사각형_5369" width="32" height="32" fill="#f9fafd" data-name="사각형 5369" rx="10"/>
        </g>
        <path id="prefix__제외_27" fill="#bcc1cc" d="M17.328 18.082a.754.754 0 0 1-.533-.221l-3.207-3.207a8.288 8.288 0 1 1 1.066-1.065l3.206 3.206a.754.754 0 0 1-.533 1.287zM8.287 1.508a6.781 6.781 0 1 0 6.781 6.781 6.788 6.788 0 0 0-6.781-6.781zM11.8 11.8H4.77a3.519 3.519 0 0 1 3.517-3.511 2.261 2.261 0 1 1 2.261-2.262 2.263 2.263 0 0 1-2.261 2.262A3.52 3.52 0 0 1 11.8 11.8z" data-name="제외 27" transform="translate(7.065 7.041)"/>
    </g>
</svg>
