<svg xmlns="http://www.w3.org/2000/svg" id="prefix__ic_asset_grade" width="65" height="65" viewBox="0 0 65 65">
    <g id="prefix__그룹_4053" data-name="그룹 4053">
        <rect id="prefix__사각형_5369" width="65" height="65" fill="#ffca71" data-name="사각형 5369" opacity="0.155" rx="10"/>
    </g>
    <path id="prefix__패스_8244" fill="#f6d59d" d="M14.331 3.922a2.986 2.986 0 0 1 5.627 0l1.727 4.8a2.993 2.993 0 0 0 2.739 1.978l5.036.126a3.011 3.011 0 0 1 1.718 5.416L27.3 19.165a3.018 3.018 0 0 0-1.07 3.284l1.416 4.683a3 3 0 0 1-4.534 3.368l-4.3-2.9a2.978 2.978 0 0 0-3.337 0l-4.3 2.9a3 3 0 0 1-4.531-3.372l1.416-4.683a3.018 3.018 0 0 0-1.07-3.284l-3.88-2.919a3.011 3.011 0 0 1 1.72-5.412l5.036-.13A2.993 2.993 0 0 0 12.6 8.72z" data-name="패스 8244" transform="translate(15.236 15.965)"/>
</svg>
