<svg xmlns="http://www.w3.org/2000/svg" id="prefix__ic_asset_daily" width="65" height="65" viewBox="0 0 65 65">
    <rect id="prefix__사각형_5369" width="65" height="65" fill="#0080f3" data-name="사각형 5369" opacity="0.13" rx="10"/>
    <g id="prefix__ic_asset_daily-2" data-name="ic_asset_daily" transform="translate(16.998 12.151)">
        <path id="prefix__제외_26" fill="#0080f3" d="M30.479 37.957H1.727A1.727 1.727 0 0 1 0 36.235a7.548 7.548 0 0 1 2.877-5.894v-7.909a13.108 13.108 0 0 1 2.6-7.874 13.346 13.346 0 0 1 6.61-4.732L8.1 6.5a1.717 1.717 0 0 1-.624-1.323A5.182 5.182 0 0 1 12.652 0h6.9a5.182 5.182 0 0 1 5.176 5.176 1.724 1.724 0 0 1-.62 1.324L20.12 9.827a13.375 13.375 0 0 1 6.606 4.732 13.106 13.106 0 0 1 2.606 7.874v7.908a7.554 7.554 0 0 1 2.877 5.894 1.728 1.728 0 0 1-1.73 1.722zm-14.255-5.213a.091.091 0 0 1 .022 0 .82.82 0 0 0 .122.006.874.874 0 0 0 .887-.813v-.632a3.667 3.667 0 0 0 3.036-3.9 4.043 4.043 0 0 0-3.036-4.065v-3.562a3.54 3.54 0 0 1 1.07.383l.008.006.024.01a1.4 1.4 0 0 0 .62.2 1.122 1.122 0 0 0 .995-1.131c0-.917-1.4-1.392-2.718-1.529V17.3a.874.874 0 0 0-.887-.811h-.123a.032.032 0 0 0-.024.006.841.841 0 0 0-.116.022 1.262 1.262 0 0 0-.122.047h-.014a.926.926 0 0 0-.106.061c-.008 0-.01.006-.014.01l-.031.022a.6.6 0 0 0-.065.047l-.045.047-.039.043a.036.036 0 0 1-.016.018.108.108 0 0 0-.012.02l-.01.012c-.014.022-.029.041-.041.063a.053.053 0 0 0-.006.014.507.507 0 0 0-.041.082v.01a.032.032 0 0 0-.006.02c-.014.037-.022.075-.033.11v.024a.844.844 0 0 0-.008.118v.465a3.372 3.372 0 0 0-3.254 3.5c0 2.361 1.609 3.125 3.254 3.706v4.351a2.764 2.764 0 0 1-1.78-.958l-.012-.01a1.119 1.119 0 0 0-.773-.453 1.153 1.153 0 0 0-1.009 1.129c0 .854 1.274 2.194 3.574 2.385v.524a.826.826 0 0 0 .006.106v.018a.07.07 0 0 1 0 .022.865.865 0 0 0 .033.108V32.196l.006.018.008.02.031.061.006.008a.612.612 0 0 0 .065.094.037.037 0 0 0 .01.014.739.739 0 0 0 .084.09c.031.027.065.055.1.08l.014.006a.516.516 0 0 0 .106.059l.016.01a.874.874 0 0 0 .12.043c.039.008.073.018.116.029zm.981-3.56v-3.5a1.915 1.915 0 0 1 1 1.835 1.6 1.6 0 0 1-1 1.67zm-1.68-6.471c-.885-.381-1.213-.8-1.213-1.558 0-.3 0-1.078 1.215-1.348v2.905z" data-name="제외 26"/>
    </g>
</svg>
