<svg xmlns="http://www.w3.org/2000/svg" width="32" height="32" viewBox="0 0 32 32">
    <g id="prefix__ic_daily_today" transform="translate(-1532 -845)">
        <rect id="prefix__사각형_5369" width="32" height="32" fill="#f9fafd" data-name="사각형 5369" rx="10" transform="translate(1532 845)"/>
        <g id="prefix__ic_asset_daily" transform="translate(1540.368 850.982)">
            <path id="prefix__제외_26" fill="#ffc20b" d="M15.005 18.687H.85a.85.85 0 0 1-.85-.848 3.716 3.716 0 0 1 1.416-2.9v-3.895A6.453 6.453 0 0 1 2.7 7.167a6.57 6.57 0 0 1 3.254-2.33L3.988 3.2a.845.845 0 0 1-.307-.651A2.551 2.551 0 0 1 6.229 0h3.4a2.551 2.551 0 0 1 2.548 2.548.849.849 0 0 1-.307.651L9.905 4.838a6.585 6.585 0 0 1 3.252 2.33 6.452 6.452 0 0 1 1.283 3.876v3.893a3.719 3.719 0 0 1 1.416 2.9.851.851 0 0 1-.851.85zM7.987 16.12H8a.4.4 0 0 0 .06 0 .43.43 0 0 0 .437-.4v-.311a1.805 1.805 0 0 0 1.494-1.92 1.99 1.99 0 0 0-1.494-2V9.737a1.743 1.743 0 0 1 .527.189l.012.005a.691.691 0 0 0 .305.1.552.552 0 0 0 .49-.557c0-.452-.692-.686-1.338-.753v-.205a.43.43 0 0 0-.437-.4h-.041L8 8.121a.016.016 0 0 0-.012 0 .414.414 0 0 0-.057.011.621.621 0 0 0-.06.023h-.007a.456.456 0 0 0-.052.03s-.005 0-.007.005l-.015.011a.3.3 0 0 0-.032.023l-.022.023-.019.021a.018.018 0 0 1-.008.009.053.053 0 0 0-.006.01L7.7 8.3l-.02.031a.026.026 0 0 0 0 .007.25.25 0 0 0-.02.04v.005a.016.016 0 0 0 0 .01c-.007.018-.011.037-.016.054s0 .01 0 .012a.415.415 0 0 0 0 .058v.229a1.66 1.66 0 0 0-1.6 1.723c0 1.162.792 1.539 1.6 1.825v2.142a1.361 1.361 0 0 1-.876-.472l-.006-.005a.551.551 0 0 0-.38-.223.568.568 0 0 0-.5.556c0 .421.627 1.08 1.759 1.174v.258a.407.407 0 0 0 0 .052v.009a.034.034 0 0 1 0 .011.426.426 0 0 0 .016.053v.024l.015.03a.3.3 0 0 0 .032.046.018.018 0 0 0 .005.007.364.364 0 0 0 .041.044c.015.013.032.027.049.039h.007a.254.254 0 0 0 .052.029l.008.005a.43.43 0 0 0 .059.021l.057.014zm.483-1.752v-1.726a.943.943 0 0 1 .492.9.787.787 0 0 1-.491.822zm-.827-3.186c-.436-.188-.6-.4-.6-.767 0-.146 0-.531.6-.663v1.429z" data-name="제외 26"/>
        </g>
    </g>
</svg>
