<svg xmlns="http://www.w3.org/2000/svg" width="18" height="18" viewBox="0 0 18 18">
  <g id="ic_flaticon-more_none" transform="translate(-15240 -14083)">
    <rect id="사각형_5418" data-name="사각형 5418" width="18" height="18" transform="translate(15240 14083)" fill="none"/>
    <g id="그룹_4070" data-name="그룹 4070" transform="translate(15222.341 14083.321)">
      <path id="패스_8256" data-name="패스 8256" d="M134.166,8.332A4.166,4.166,0,1,0,130,4.166,4.166,4.166,0,0,0,134.166,8.332Zm0-7.091a2.925,2.925,0,1,1-2.925,2.925,2.925,2.925,0,0,1,2.925-2.925Z" transform="translate(-107.659)" fill="#b4b8ce" stroke="#b4b8ce" stroke-width="0.5"/>
      <path id="패스_8257" data-name="패스 8257" d="M19.9,282.041a6.422,6.422,0,0,1,6.6-6.205,6.422,6.422,0,0,1,6.6,6.205h1.243a7.621,7.621,0,0,0-7.848-7.372,8.112,8.112,0,0,0-5.549,2.159,7.107,7.107,0,0,0-2.3,5.213Z" transform="translate(0 -264.647)" fill="#b4b8ce" stroke="#b4b8ce" stroke-width="0.5"/>
    </g>
  </g>
</svg>
